#!OML:ASF X:\für Bonn\!DataBase\2005_08_12_Daniel\c3d\Daniel.ASF
:FULLY-SPECIFIED
:DEGREES
3439
root 0.859466 17.5598 0.0487577 -1037.44 -85.6922 -45.4685
lowerback 5.4521 -1.02043 2.89888
upperback -0.726201 -1.18319 -0.471849
thorax -3.87901 -0.656328 -2.01132
lowerneck 1.42869 2.9191 -1.85422
upperneck 7.79898 3.7649 0.694103
head 2.14728 1.79186 0.58132
rclavicle -9.44227e-016 -2.38542e-015
rhumerus -22.2457 9.03773 -7.37396
rradius 19.1447
rwrist -15.6702
rhand -16.8482 1.5702
rfingers 7.12502
rthumb 9.38178 -28.201
lclavicle -9.44227e-016 -2.38542e-015
lhumerus -28.7853 21.6464 -11.9546
lradius 18.3539
lwrist -0.461256
lhand -18.7756 12.1169
lfingers 7.12502
lthumb 7.52176 41.9631
rfemur 3.34918 27.4412 25.2521
rtibia 22.3408
rfoot -31.4253 -30.4604
rtoes -13.966
lfemur -5.2006 -12.5959 -15.7494
ltibia 35.9737
lfoot -27.7797 13.289
ltoes -18.5723
3440
root 0.866203 17.5602 0.0495548 -1037.55 -85.6899 -45.3612
lowerback 5.51927 -1.01462 2.92516
upperback -0.721445 -1.17259 -0.496524
thorax -3.91248 -0.652329 -2.05162
lowerneck 1.46526 2.93462 -1.94834
upperneck 7.77264 3.78381 0.718673
head 2.1298 1.79936 0.603952
rclavicle 1.13432e-014 3.57812e-015
rhumerus -22.3851 9.36039 -7.33957
rradius 19.1737
rwrist -16.0195
rhand -16.851 1.55341
rfingers 7.12502
rthumb 9.37908 -28.2179
lclavicle 1.13432e-014 3.57812e-015
lhumerus -28.7426 21.1386 -11.9695
lradius 18.4367
lwrist 0.00261684
lhand -19.0089 12.1397
lfingers 7.12502
lthumb 7.29653 41.9939
rfemur 3.32442 27.3785 25.2103
rtibia 22.3362
rfoot -31.4183 -30.3785
rtoes -13.8639
lfemur -5.2154 -12.5792 -15.7506
ltibia 35.9632
lfoot -27.7409 13.2706
ltoes -18.58
3441
root 0.873538 17.5617 0.0508875 -1037.55 -85.6899 -45.3612
lowerback 5.56452 -1.01902 2.94836
upperback -0.70764 -1.17655 -0.519945
thorax -3.92494 -0.655097 -2.088
lowerneck 1.48288 2.95886 -2.00639
upperneck 7.73398 3.81615 0.725633
head 2.11243 1.81449 0.615354
rclavicle 4.68386e-015 -9.93923e-015
rhumerus -22.4437 9.48213 -7.28904
rradius 19.1485
rwrist -16.1757
rhand -16.7666 1.57673
rfingers 7.12502
rthumb 9.46058 -28.1909
lclavicle 4.68386e-015 -9.93923e-015
lhumerus -28.7506 20.8601 -12.0977
lradius 18.5058
lwrist 0.216542
lhand -19.214 12.1971
lfingers 7.12502
lthumb 7.09856 42.058
rfemur 3.27278 27.2654 25.151
rtibia 22.3273
rfoot -31.3143 -30.2891
rtoes -13.8932
lfemur -5.2295 -12.5901 -15.7504
ltibia 35.9532
lfoot -27.7702 13.2499
ltoes -18.5239
3442
root 0.88142 17.5635 0.0528396 -1037.72 -85.6767 -45.1931
lowerback 5.63487 -1.01662 2.97755
upperback -0.716705 -1.16989 -0.542782
thorax -3.97481 -0.653509 -2.12755
lowerneck 1.54019 2.97073 -2.10286
upperneck 7.69881 3.8301 0.738436
head 2.08866 1.8192 0.634042
rclavicle 3.93842e-015 -1.19271e-015
rhumerus -22.5689 9.77324 -7.26361
rradius 19.1691
rwrist -16.5077
rhand -16.6915 1.57203
rfingers 7.12502
rthumb 9.53302 -28.1923
lclavicle 3.93842e-015 -1.19271e-015
lhumerus -28.6763 20.4031 -12.117
lradius 18.5836
lwrist 0.6414
lhand -19.4546 12.2515
lfingers 7.12502
lthumb 6.8663 42.1201
rfemur 3.22283 27.1295 25.0802
rtibia 22.3136
rfoot -31.2343 -30.1649
rtoes -13.8587
lfemur -5.2527 -12.6228 -15.7535
ltibia 35.9396
lfoot -27.7444 13.2416
ltoes -18.4608
3443
root 0.890039 17.5639 0.0544274 -1037.93 -85.6528 -44.9813
lowerback 5.69214 -1.03328 2.988
upperback -0.705991 -1.18986 -0.545673
thorax -3.9975 -0.663903 -2.13382
lowerneck 1.54384 2.98957 -2.19218
upperneck 7.67545 3.85775 0.705196
head 2.07903 1.82998 0.638475
rclavicle -7.45443e-017 -1.27222e-014
rhumerus -22.6288 9.97174 -7.22368
rradius 19.1717
rwrist -16.7059
rhand -16.6098 1.58875
rfingers 7.12502
rthumb 9.61183 -28.172
lclavicle -7.45443e-017 -1.27222e-014
lhumerus -28.6533 19.826 -12.1076
lradius 18.6719
lwrist 1.17753
lhand -19.7177 12.3102
lfingers 7.12502
lthumb 6.61233 42.1869
rfemur 3.1719 26.9937 25.0238
rtibia 22.2983
rfoot -31.1355 -30.0749
rtoes -13.8726
lfemur -5.27934 -12.6418 -15.7425
ltibia 35.926
lfoot -27.7327 13.2091
ltoes -18.3948
3444
root 0.897562 17.5655 0.0558099 -1038 -85.6594 -44.9183
lowerback 5.74983 -1.02868 2.99931
upperback -0.702124 -1.18222 -0.572037
thorax -4.02641 -0.661045 -2.16738
lowerneck 1.54207 3.00106 -2.26523
upperneck 7.67004 3.87404 0.695331
head 2.07623 1.83586 0.647757
rclavicle -5.51627e-015 -1.27222e-014
rhumerus -22.7272 10.2536 -7.22173
rradius 19.1922
rwrist -17.0458
rhand -16.5049 1.59568
rfingers 7.12502
rthumb 9.71305 -28.1604
lclavicle -5.51627e-015 -1.27222e-014
lhumerus -28.5948 19.5803 -12.2021
lradius 18.7244
lwrist 1.35031
lhand -19.9011 12.3056
lfingers 7.12502
lthumb 6.43532 42.1878
rfemur 3.11805 26.8028 24.9263
rtibia 22.2797
rfoot -31.0213 -29.8913
rtoes -13.8717
lfemur -5.28174 -12.6785 -15.7624
ltibia 35.9098
lfoot -27.7376 13.2231
ltoes -18.3924
